<svg width="80" height="29" viewBox="0 0 80 29" fill="none" xmlns="http://www.w3.org/2000/svg">
<rect x="0.5" y="0.5" width="79" height="28" rx="3.5" fill="#16C098" fill-opacity="0.38"/>
<path d="M24.916 17.012H20.842L20.142 19H18.476L21.962 9.256H23.81L27.296 19H25.616L24.916 17.012ZM24.468 15.71L22.886 11.188L21.29 15.71H24.468ZM28.1397 15.136C28.1397 14.3427 28.2984 13.6473 28.6157 13.05C28.9424 12.4433 29.3904 11.9767 29.9597 11.65C30.5291 11.3233 31.1824 11.16 31.9197 11.16C32.8531 11.16 33.6231 11.384 34.2297 11.832C34.8457 12.2707 35.2611 12.9007 35.4757 13.722H33.7537C33.6137 13.3393 33.3897 13.0407 33.0817 12.826C32.7737 12.6113 32.3864 12.504 31.9197 12.504C31.2664 12.504 30.7437 12.7373 30.3517 13.204C29.9691 13.6613 29.7777 14.3053 29.7777 15.136C29.7777 15.9667 29.9691 16.6153 30.3517 17.082C30.7437 17.5487 31.2664 17.782 31.9197 17.782C32.8437 17.782 33.4551 17.376 33.7537 16.564H35.4757C35.2517 17.348 34.8317 17.9733 34.2157 18.44C33.5997 18.8973 32.8344 19.126 31.9197 19.126C31.1824 19.126 30.5291 18.9627 29.9597 18.636C29.3904 18.3 28.9424 17.8333 28.6157 17.236C28.2984 16.6293 28.1397 15.9293 28.1397 15.136ZM38.7882 12.588V16.858C38.7882 17.1473 38.8536 17.3573 38.9842 17.488C39.1242 17.6093 39.3576 17.67 39.6842 17.67H40.6642V19H39.4042C38.6856 19 38.1349 18.832 37.7522 18.496C37.3696 18.16 37.1782 17.614 37.1782 16.858V12.588H36.2682V11.286H37.1782V9.368H38.7882V11.286H40.6642V12.588H38.7882ZM42.8072 10.264C42.5179 10.264 42.2752 10.166 42.0792 9.97C41.8832 9.774 41.7852 9.53133 41.7852 9.242C41.7852 8.95267 41.8832 8.71 42.0792 8.514C42.2752 8.318 42.5179 8.22 42.8072 8.22C43.0872 8.22 43.3252 8.318 43.5212 8.514C43.7172 8.71 43.8152 8.95267 43.8152 9.242C43.8152 9.53133 43.7172 9.774 43.5212 9.97C43.3252 10.166 43.0872 10.264 42.8072 10.264ZM43.5912 11.286V19H41.9952V11.286H43.5912ZM48.5286 17.572L50.7126 11.286H52.4066L49.4666 19H47.5626L44.6366 11.286H46.3446L48.5286 17.572ZM60.543 14.954C60.543 15.2433 60.5244 15.5047 60.487 15.738H54.593C54.6397 16.354 54.8684 16.8487 55.279 17.222C55.6897 17.5953 56.1937 17.782 56.791 17.782C57.6497 17.782 58.2564 17.4227 58.611 16.704H60.333C60.0997 17.4133 59.675 17.9967 59.059 18.454C58.4524 18.902 57.6964 19.126 56.791 19.126C56.0537 19.126 55.391 18.9627 54.803 18.636C54.2244 18.3 53.767 17.8333 53.431 17.236C53.1044 16.6293 52.941 15.9293 52.941 15.136C52.941 14.3427 53.0997 13.6473 53.417 13.05C53.7437 12.4433 54.1964 11.9767 54.775 11.65C55.363 11.3233 56.035 11.16 56.791 11.16C57.519 11.16 58.1677 11.3187 58.737 11.636C59.3064 11.9533 59.7497 12.4013 60.067 12.98C60.3844 13.5493 60.543 14.2073 60.543 14.954ZM58.877 14.45C58.8677 13.862 58.6577 13.3907 58.247 13.036C57.8364 12.6813 57.3277 12.504 56.721 12.504C56.1704 12.504 55.699 12.6813 55.307 13.036C54.915 13.3813 54.6817 13.8527 54.607 14.45H58.877Z" fill="#008767"/>
<rect x="0.5" y="0.5" width="79" height="28" rx="3.5" stroke="#00B087"/>
</svg>
