<svg width="84" height="29" viewBox="0 0 84 29" fill="none" xmlns="http://www.w3.org/2000/svg">
<rect x="0.5" y="0.5" width="83" height="28" rx="3.5" fill="#FFC5C5"/>
<path d="M16.646 9.27V19H15.05V9.27H16.646ZM22.4934 11.16C23.1001 11.16 23.6414 11.286 24.1174 11.538C24.6027 11.79 24.9807 12.1633 25.2514 12.658C25.5221 13.1527 25.6574 13.75 25.6574 14.45V19H24.0754V14.688C24.0754 13.9973 23.9027 13.47 23.5574 13.106C23.2121 12.7327 22.7407 12.546 22.1434 12.546C21.5461 12.546 21.0701 12.7327 20.7154 13.106C20.3701 13.47 20.1974 13.9973 20.1974 14.688V19H18.6014V11.286H20.1974V12.168C20.4587 11.8507 20.7901 11.6033 21.1914 11.426C21.6021 11.2487 22.0361 11.16 22.4934 11.16ZM27.0212 15.108C27.0212 14.3333 27.1799 13.6473 27.4972 13.05C27.8239 12.4527 28.2625 11.9907 28.8132 11.664C29.3732 11.328 29.9892 11.16 30.6612 11.16C31.2679 11.16 31.7952 11.2813 32.2432 11.524C32.7005 11.7573 33.0645 12.0513 33.3352 12.406V11.286H34.9452V19H33.3352V17.852C33.0645 18.216 32.6959 18.5193 32.2292 18.762C31.7625 19.0047 31.2305 19.126 30.6332 19.126C29.9705 19.126 29.3639 18.958 28.8132 18.622C28.2625 18.2767 27.8239 17.8007 27.4972 17.194C27.1799 16.578 27.0212 15.8827 27.0212 15.108ZM33.3352 15.136C33.3352 14.604 33.2232 14.142 32.9992 13.75C32.7845 13.358 32.4999 13.0593 32.1452 12.854C31.7905 12.6487 31.4079 12.546 30.9972 12.546C30.5865 12.546 30.2039 12.6487 29.8492 12.854C29.4945 13.05 29.2052 13.344 28.9812 13.736C28.7665 14.1187 28.6592 14.576 28.6592 15.108C28.6592 15.64 28.7665 16.1067 28.9812 16.508C29.2052 16.9093 29.4945 17.2173 29.8492 17.432C30.2132 17.6373 30.5959 17.74 30.9972 17.74C31.4079 17.74 31.7905 17.6373 32.1452 17.432C32.4999 17.2267 32.7845 16.928 32.9992 16.536C33.2232 16.1347 33.3352 15.668 33.3352 15.136ZM36.3695 15.136C36.3695 14.3427 36.5282 13.6473 36.8455 13.05C37.1722 12.4433 37.6202 11.9767 38.1895 11.65C38.7588 11.3233 39.4122 11.16 40.1495 11.16C41.0828 11.16 41.8528 11.384 42.4595 11.832C43.0755 12.2707 43.4908 12.9007 43.7055 13.722H41.9835C41.8435 13.3393 41.6195 13.0407 41.3115 12.826C41.0035 12.6113 40.6162 12.504 40.1495 12.504C39.4962 12.504 38.9735 12.7373 38.5815 13.204C38.1988 13.6613 38.0075 14.3053 38.0075 15.136C38.0075 15.9667 38.1988 16.6153 38.5815 17.082C38.9735 17.5487 39.4962 17.782 40.1495 17.782C41.0735 17.782 41.6848 17.376 41.9835 16.564H43.7055C43.4815 17.348 43.0615 17.9733 42.4455 18.44C41.8295 18.8973 41.0642 19.126 40.1495 19.126C39.4122 19.126 38.7588 18.9627 38.1895 18.636C37.6202 18.3 37.1722 17.8333 36.8455 17.236C36.5282 16.6293 36.3695 15.9293 36.3695 15.136ZM47.018 12.588V16.858C47.018 17.1473 47.0833 17.3573 47.214 17.488C47.354 17.6093 47.5873 17.67 47.914 17.67H48.894V19H47.634C46.9153 19 46.3647 18.832 45.982 18.496C45.5993 18.16 45.408 17.614 45.408 16.858V12.588H44.498V11.286H45.408V9.368H47.018V11.286H48.894V12.588H47.018ZM51.037 10.264C50.7477 10.264 50.505 10.166 50.309 9.97C50.113 9.774 50.015 9.53133 50.015 9.242C50.015 8.95267 50.113 8.71 50.309 8.514C50.505 8.318 50.7477 8.22 51.037 8.22C51.317 8.22 51.555 8.318 51.751 8.514C51.947 8.71 52.045 8.95267 52.045 9.242C52.045 9.53133 51.947 9.774 51.751 9.97C51.555 10.166 51.317 10.264 51.037 10.264ZM51.821 11.286V19H50.225V11.286H51.821ZM56.7584 17.572L58.9424 11.286H60.6364L57.6964 19H55.7924L52.8664 11.286H54.5744L56.7584 17.572ZM68.7728 14.954C68.7728 15.2433 68.7541 15.5047 68.7168 15.738H62.8228C62.8695 16.354 63.0981 16.8487 63.5088 17.222C63.9195 17.5953 64.4235 17.782 65.0208 17.782C65.8795 17.782 66.4861 17.4227 66.8408 16.704H68.5628C68.3295 17.4133 67.9048 17.9967 67.2888 18.454C66.6821 18.902 65.9261 19.126 65.0208 19.126C64.2835 19.126 63.6208 18.9627 63.0328 18.636C62.4541 18.3 61.9968 17.8333 61.6608 17.236C61.3341 16.6293 61.1708 15.9293 61.1708 15.136C61.1708 14.3427 61.3295 13.6473 61.6468 13.05C61.9735 12.4433 62.4261 11.9767 63.0048 11.65C63.5928 11.3233 64.2648 11.16 65.0208 11.16C65.7488 11.16 66.3975 11.3187 66.9668 11.636C67.5361 11.9533 67.9795 12.4013 68.2968 12.98C68.6141 13.5493 68.7728 14.2073 68.7728 14.954ZM67.1068 14.45C67.0975 13.862 66.8875 13.3907 66.4768 13.036C66.0661 12.6813 65.5575 12.504 64.9508 12.504C64.4001 12.504 63.9288 12.6813 63.5368 13.036C63.1448 13.3813 62.9115 13.8527 62.8368 14.45H67.1068Z" fill="#DF0404"/>
<rect x="0.5" y="0.5" width="83" height="28" rx="3.5" stroke="#DF0404"/>
</svg>
